<svg width="367" height="272" viewBox="0 0 367 272" fill="none" xmlns="http://www.w3.org/2000/svg">
<path d="M16.8225 219.501C16.161 222.479 16.7095 225.598 18.3475 228.171C19.9854 230.745 22.5785 232.562 25.5565 233.224C28.5344 233.885 31.6531 233.337 34.2266 231.699C36.8001 230.061 38.6175 227.468 39.279 224.49C39.279 224.49 39.279 224.49 39.279 224.49C40.4488 219.227 41.7245 214.06 43.2177 209.116C46.5917 197.641 51.6392 187.556 58.3328 177.049C58.3409 177.036 58.3491 177.023 58.3573 177.01C63.5704 167.84 73.9234 162.459 85.3367 154.295C85.3399 154.293 85.3431 154.29 85.3463 154.288C95.0101 147.494 106.479 141.728 118.146 135.159C118.15 135.156 118.155 135.154 118.159 135.152C131.207 127.845 145.231 122.807 160.368 118.78C160.381 118.776 160.394 118.773 160.407 118.769C182.616 113.138 206.919 109.028 230.548 105.609L229.973 105.684C229.982 105.683 229.991 105.682 230 105.681C245.474 104.171 260.695 103.001 276.023 101.799L275.36 101.836C275.363 101.836 275.366 101.836 275.369 101.836C280.131 101.69 285.154 101.043 290.147 99.7985C295.672 98.4283 301.237 96.3476 306.813 93.5273C307.989 92.9238 309.117 92.1797 309.948 91.1853C310.78 90.1908 311.247 89.0282 311.247 87.832C311.247 86.6359 310.78 85.4733 309.948 84.4787C309.117 83.4844 307.989 82.7402 306.813 82.1367C306.813 82.1367 306.813 82.1367 306.813 82.1367C301.236 79.3165 295.647 77.2363 290.017 75.926C284.906 74.7432 279.816 74.1722 274.489 74.3343C274.486 74.3345 274.482 74.3346 274.478 74.3347L273.814 74.372C258.192 75.5974 242.592 77.6727 227.185 79.488C227.176 79.4891 227.167 79.4902 227.158 79.4912L226.583 79.5658C202.129 83.6352 178.388 87.9073 153.539 94.6742C153.523 94.6789 153.507 94.6837 153.491 94.6885C137.618 99.2072 121.241 105.514 106.256 114.123C106.251 114.125 106.246 114.128 106.241 114.131C95.2184 120.508 83.2107 126.417 71.5182 134.744C71.5144 134.747 71.5105 134.749 71.5067 134.752C61.5093 142.231 47.4049 150.363 38.9026 164.734C38.8938 164.748 38.8849 164.762 38.876 164.776C31.6735 175.984 25.049 189.151 21.1966 202.464C19.4685 208.19 18.0725 213.882 16.8225 219.501Z" fill="#FF5841"/>
<path d="M34.5731 217.283C30.951 215.948 26.9471 216.107 23.4422 217.725C19.9374 219.342 17.2187 222.286 15.8842 225.908C14.5497 229.53 14.7088 233.534 16.3264 237.039C17.9441 240.544 20.8877 243.263 24.5099 244.597C24.5099 244.597 24.5099 244.597 24.5099 244.597C31.0287 246.999 37.5831 249.414 44.1962 251.79C63.9587 258.792 83.9402 265.902 106.281 269.803C106.281 269.803 106.281 269.803 106.282 269.804C129.36 274.169 154.273 270.449 174.837 265.232C174.837 265.232 174.838 265.232 174.839 265.232C198.479 259.5 221.537 253.073 244.76 245.384C244.77 245.381 244.779 245.378 244.789 245.375C262.527 238.929 279.416 233.998 298.004 218.534C298.005 218.533 298.005 218.533 298.006 218.532C314.421 201.055 324.243 185.756 335.602 168.8C335.603 168.798 335.605 168.795 335.607 168.793L336.265 167.673C346.923 147.534 357.389 128.025 364.127 103.363C364.617 101.381 365.066 99.3296 365.438 97.1142C365.439 97.1063 365.44 97.0983 365.442 97.0904L365.555 96.2946C365.907 93.235 366.17 90.0964 366.161 86.5094C365.944 82.747 366.522 79.4055 363.296 71.7995C361.407 67.9007 358.052 64.9036 353.961 63.4716C349.87 62.0395 345.379 62.2891 341.475 64.1662C337.57 66.0433 334.57 69.395 333.134 73.4846C331.697 77.5743 331.943 82.0663 333.808 85.9764C333.808 85.9764 333.808 85.9764 333.808 85.9764C333.113 84.4168 333.318 84.4832 333.319 84.7812C333.362 85.1174 333.408 85.8239 333.407 86.6334C333.41 88.2789 333.262 90.3543 333.011 92.4879L333.124 91.6921C333.123 91.6963 333.122 91.7005 333.122 91.7047C332.926 92.8753 332.651 94.1676 332.321 95.5092C327.541 113.567 317.747 133.63 307.905 152.515L308.563 151.395C308.561 151.398 308.56 151.4 308.558 151.403C298.497 167.143 287.022 185.013 276.789 196.21C276.789 196.21 276.788 196.21 276.788 196.21C268.177 203.979 250.626 211.289 235.016 216.714C235.006 216.717 234.997 216.72 234.988 216.723C213.138 224.211 190.391 230.884 167.85 236.539C167.849 236.54 167.848 236.54 167.847 236.54C147.63 241.716 129.789 244.479 111.072 241.091C111.071 241.091 111.071 241.091 111.071 241.091C92.5666 237.907 73.2479 231.246 54.0391 224.396C47.5759 222.073 41.0916 219.684 34.5731 217.283Z" fill="#FF5841"/>
<path d="M201.658 109.922C204.354 109.345 206.71 107.72 208.208 105.406C209.706 103.092 210.223 100.277 209.646 97.5816C209.069 94.8859 207.445 92.5298 205.131 91.0317C202.816 89.5336 200.002 89.0162 197.306 89.5933C197.306 89.5933 197.306 89.5933 197.306 89.5933C188.452 91.4937 179.656 93.4885 170.775 95.8382C159.124 98.9893 146.059 102.766 134.775 110.205C134.721 110.238 134.668 110.272 134.614 110.306C121.803 116.909 111.182 134.988 109.526 146.399C109.5 146.492 109.474 146.585 109.448 146.678C104.974 172.303 111.688 190.21 123.367 210.315C123.438 210.417 123.509 210.518 123.58 210.618C129.931 219.777 139.543 225.079 145.916 228.886C146.028 228.953 146.141 229.019 146.255 229.085C157.948 235.322 167.858 237.27 178.928 239.023C178.998 239.033 179.068 239.042 179.138 239.052C191.486 240.544 204.341 241.495 218.688 235.435C218.729 235.416 218.769 235.398 218.81 235.379C235.448 227.322 241.747 212.923 247.463 203.16C247.506 203.082 247.549 203.003 247.592 202.925C257.43 180.607 255.955 164.46 254.814 145.418C254.8 145.295 254.785 145.171 254.77 145.048C251.308 127.269 241.656 120.976 235.059 114.083C234.963 113.994 234.865 113.904 234.766 113.814C219.296 101.787 208.88 104.768 199.547 103.334C190.082 102.778 180.972 102.569 171.868 102.356C171.84 102.356 171.812 102.355 171.784 102.354C156.128 101.506 139.475 109.073 131.335 111.894C131.161 111.947 130.989 112.001 130.816 112.058C126.31 113.465 122.46 116.345 120.867 117.689L116.938 120.924L115.651 125.99C115.63 126.071 115.61 126.153 115.59 126.234C111.031 147.037 114.47 164.966 116.791 183.258C117.075 185.295 117.36 187.391 117.633 189.371C117.636 189.395 117.639 189.419 117.643 189.442C118.57 196.319 121.068 203.193 122.781 210.07C122.973 210.827 123.526 211.554 124.208 212.09C124.897 212.626 125.659 212.927 126.438 212.927C127.216 212.927 127.978 212.626 128.667 212.09C129.349 211.554 129.902 210.827 130.094 210.07C130.094 210.07 130.094 210.07 130.094 210.07C131.807 203.193 134.305 196.319 135.232 189.442C135.236 189.419 135.239 189.395 135.242 189.371C135.514 187.398 135.806 185.368 136.118 183.394C138.956 166.042 142.952 147.915 146.176 133.767C146.189 133.716 146.201 133.665 146.213 133.615L140.997 141.917C141.58 141.422 141.789 141.25 141.636 141.316C141.493 141.378 140.995 141.608 140.583 141.734C140.551 141.745 140.519 141.754 140.487 141.764C155.384 136.35 161.863 133.209 171.207 133.427C171.222 133.427 171.238 133.428 171.254 133.428C180.205 133.589 189.207 133.763 197.752 134.222C205.988 134.434 215.503 136.416 214.098 136.614C214.112 136.626 214.126 136.639 214.142 136.652C220.303 141.932 225.057 148.7 224.66 149.054C224.661 149.055 224.662 149.055 224.663 149.055C226.423 162.764 226.344 181.393 222.549 189.666C222.539 189.687 222.529 189.708 222.519 189.729C217.303 200.238 212.071 208.229 207.087 210.563C207.075 210.57 207.062 210.577 207.049 210.583C201.214 213.585 191.235 215.161 181.856 214.416C181.802 214.412 181.749 214.408 181.695 214.404C173.288 213.753 163.547 211.606 157.734 208.692C157.688 208.667 157.643 208.644 157.599 208.621C150.003 204.57 144.985 201.746 141.984 197.491C141.949 197.443 141.915 197.395 141.881 197.347C134.047 185.482 128.208 164.359 130.917 152.536C130.927 152.499 130.936 152.463 130.946 152.427C133.779 139.347 136.499 133.927 145.675 127.908C145.724 127.877 145.774 127.846 145.823 127.815C154.548 122.019 164.813 118.995 176.108 115.932C184.46 113.721 193.008 111.777 201.658 109.922Z" fill="#FF5841"/>
<path d="M151.132 107.642C152.433 109.79 154.533 111.334 156.972 111.934C159.41 112.534 161.987 112.14 164.136 110.84C166.284 109.539 167.828 107.439 168.428 105C169.027 102.562 168.634 99.9846 167.333 97.8362C167.333 97.8362 167.333 97.8362 167.333 97.8362C166.601 96.6258 165.868 95.4151 165.136 94.2052C156.11 79.2776 147.034 64.3383 138.189 49.4283C138.188 49.4279 138.188 49.4276 138.188 49.4272C134.92 43.8937 128.574 40.4146 125.54 34.692C125.54 34.692 125.54 34.692 125.54 34.692C124.754 33.2487 123.943 31.8287 123.127 30.4376C122.392 29.1837 121.654 27.9533 120.926 26.7402C120.143 25.4344 118.873 24.4932 117.395 24.1238C115.918 23.7545 114.354 23.9872 113.048 24.7707C111.742 25.5542 110.801 26.8244 110.432 28.3019C110.062 29.7793 110.295 31.343 111.079 32.6489C111.079 32.6489 111.079 32.6489 111.079 32.6489C111.807 33.8622 112.524 35.0581 113.22 36.2453C113.992 37.5629 114.738 38.8709 115.454 40.1855C115.454 40.1856 115.454 40.1856 115.454 40.1856C118.452 45.8466 118.588 53.4819 121.887 59.0657C121.887 59.0661 121.887 59.0664 121.887 59.0668C130.846 74.1673 139.898 89.0653 148.934 104.011C149.667 105.221 150.4 106.432 151.132 107.642Z" fill="#FF5841"/>
<path d="M217.65 93.7948C217.65 97.2789 219.034 100.62 221.498 103.084C223.961 105.547 227.302 106.932 230.787 106.932C234.271 106.932 237.612 105.547 240.076 103.084C242.539 100.62 243.923 97.2789 243.923 93.7948C243.923 93.7948 243.923 93.7948 243.923 93.7948C243.923 92.3004 243.923 90.8022 243.922 89.3018C243.921 75.1091 243.734 60.782 243.176 46.4743C243.176 46.4735 243.176 46.4726 243.176 46.4718L243.083 45.341C241.672 33.5482 237.176 21.3701 235.279 11.1054C235.279 11.1053 235.279 11.1051 235.279 11.1049C235.181 10.3473 234.952 9.59272 234.658 8.83513C234.078 7.34105 233.244 5.84688 232.666 4.35254C232.213 3.19819 231.147 2.09111 229.963 1.27486C228.765 0.458612 227.546 4.72069e-05 226.314 4.72069e-05C225.083 4.72069e-05 223.864 0.458612 222.665 1.27486C221.482 2.09111 220.416 3.19819 219.963 4.35254C219.385 5.84688 218.551 7.34105 217.971 8.83513C217.677 9.59272 217.448 10.3473 217.35 11.1049C217.35 11.1051 217.35 11.1053 217.35 11.1054C216.262 24.8781 215.606 36.5238 217.014 48.6175L216.922 47.4867C216.922 47.4875 216.922 47.4883 216.922 47.4892C217.464 61.3916 217.647 75.2885 217.649 89.3242C217.65 90.8108 217.65 92.3004 217.65 93.7948Z" fill="#FF5841"/>
<path d="M58.7087 157.268C61.3099 159.417 64.658 160.444 68.0166 160.124C71.3751 159.803 74.4688 158.162 76.6173 155.561C78.7657 152.96 79.7928 149.612 79.4727 146.253C79.1525 142.895 77.5113 139.801 74.9101 137.652C74.9101 137.652 74.9101 137.652 74.9101 137.652C73.8326 136.762 72.7816 135.894 71.7501 135.04C56.4451 122.127 38.6438 108.359 27.548 96.0394L28.8514 98.013C28.8514 98.0129 28.8513 98.0127 28.8512 98.0126C26.9177 94.3933 24.4915 91.1073 22.1657 87.8315C22.1656 87.8313 22.1655 87.8311 22.1653 87.831L22.5214 88.4872C22.4618 88.4175 22.3912 88.3465 22.3107 88.2701C21.8529 87.8487 21.0536 87.1502 20.3017 85.9431C19.0742 84.0083 16.8723 82.4943 14.4824 81.6335C12.075 80.7786 9.67605 80.6471 7.51125 81.3687C5.34644 82.0903 3.50619 83.6349 2.0932 85.7633C0.697755 87.8858 -0.155396 90.4181 0.0235453 92.7024C0.0235453 92.7024 0.0235453 92.7024 0.0235453 92.7024C0.136433 94.0942 0.211048 95.9985 0.896511 98.0691C1.01526 98.428 1.15152 98.789 1.30697 99.1472L1.66302 99.8035C1.66311 99.8037 1.66319 99.8039 1.66328 99.8041C3.2644 103.253 4.67378 106.748 6.41046 109.999C6.41051 109.999 6.41057 109.999 6.41062 109.999L7.71409 111.973C24.2084 130.098 39.5388 140.963 55.5317 154.642C56.5693 155.5 57.6259 156.374 58.7087 157.268Z" fill="#FF5841"/>
<circle cx="190.163" cy="163.353" r="30" fill="#FF5841"/>
</svg>
