<svg width="162" height="82" viewBox="0 0 162 82" fill="none" xmlns="http://www.w3.org/2000/svg">
<path d="M24.3618 35.1474C24.3618 38.9548 24.3618 42.8198 24.8377 46.4181C25.0685 48.163 26.2655 49.5404 28.4216 50.7518C33.5639 53.6412 40.6729 53.8958 46.1965 53.1819C49.9692 52.6943 51.273 48.1415 52.9531 45.2643C54.5259 42.5709 54.6477 39.4884 54.1717 36.6112C53.9228 35.1061 52.744 33.7341 51.5398 32.7606C49.2031 30.8717 42.6775 30.8208 34.9907 31.5347C31.9902 31.8134 31.1112 33.6764 30.3829 35.1258C28.9825 37.9127 28.6884 42.8054 29.4023 48.091C29.6807 50.1527 31.5439 50.5211 33.9451 50.7662C39.6534 51.3491 44.538 50.0596 47.1772 47.9035C52.2962 43.7216 52.7151 36.6184 52.4916 29.8834C52.2588 22.8677 36.4473 23.6099 25.8761 24.3238C21.9122 24.5915 21.016 26.4655 20.0497 28.1528C18.0266 31.6857 17.1509 38.4644 17.6268 46.6272C17.9467 52.1138 22.4149 56.2754 27.2101 60.1188C37.4975 68.3642 54.6188 61.597 61.3538 56.8018C64.4104 54.6255 65.6948 50.5499 67.137 45.7619C69.0721 39.3373 67.1514 33.7196 65.9544 30.8425C63.3848 24.6663 56.1187 21.7062 50.3428 19.2906C44.5668 17.3653 35.0051 16.399 27.5058 19.5069C26.2943 20.7111 25.3425 22.1389 22.9196 26.4943" stroke="white" stroke-width="35" stroke-linecap="round"/>
<path d="M114.926 18.0296C106.36 19.9333 100.519 22.8176 98.1178 26.4159C94.2702 32.1815 94.7359 50.1038 99.0408 59.6005C104.029 70.605 129.319 60.3433 137.251 54.351C140.521 51.881 141.838 47.378 143.28 41.393C145.243 33.2471 142.818 26.6971 140.662 23.82C138.324 20.6995 134.656 18.9959 128.916 18.2748C119.44 17.0843 112.057 19.4574 109.655 22.3345C105.644 27.1412 105.322 33.8648 105.307 42.0347C105.301 45.6924 109.143 47.8251 112.258 49.5053C115.592 51.3032 119.715 51.1998 123.551 50.248C128.192 49.0963 130.3 44.0033 131.742 39.4604C134.13 31.9407 131.281 25.2549 129.125 22.6157C126.969 19.9773 120.263 19.4718 112.576 20.1857C109.575 20.4643 108.696 22.3273 107.968 24.0147C103.827 33.609 107.225 45.4167 109.619 48.0559C116.83 51.6757 124.979 52.642 131.468 51.9281C133.675 51.2142 133.675 49.7865 133.675 48.3155" stroke="white" stroke-width="35" stroke-linecap="round"/>
<path d="M43.1104 32.2629C43.1104 33.2148 41.6827 35.6088 40.2333 38.2552C40.2117 38.9979 41.6394 38.522 42.3749 37.563C43.1104 36.6039 43.1104 35.1761 40.2261 32.2629" stroke="black" stroke-width="35" stroke-linecap="round"/>
<path d="M104.831 26.6826C104.355 30.0141 103.88 33.3455 104.586 35.0617C105.293 36.7779 107.197 36.7779 108.653 36.064C110.11 35.3501 111.062 33.9224 112.042 29.567" stroke="black" stroke-width="35" stroke-linecap="round"/>
</svg>
